{
.appVersion = "3151";
.formatVersion = 3;
customParameters = (
{
name = vendorID;
value = GOOG;
},
{
name = panose;
value = (
2,
2,
2,
0,
0,
0,
0,
0,
0,
0
);
},
{
name = unicodeRanges;
value = (
0,
1,
7,
29,
36,
42,
43,
44,
45,
48,
49,
50,
51,
52,
54,
55,
57,
59,
61,
65,
66,
68
);
},
{
name = codePageRanges;
value = (
"1252",
"1250",
"1251",
"1258",
"932",
"936",
"bit 29",
"bit 30"
);
},
{
name = fsType;
value = (
);
},
{
name = ROS;
value = "Adobe-Identity-0";
}
);
date = "2017-05-01 10:51:04 +0000";
familyName = "Yaku Han MP s";
featurePrefixes = (
{
automatic = 1;
code = "languagesystem DFLT dflt;
";
name = Languagesystems;
}
);
features = (
{
automatic = 1;
code = "feature vert;
feature vrt2;
";
tag = aalt;
},
{
code = "sub blacklenticularbracketleft by blacklenticularbracketleft.vert;
sub blacklenticularbracketright by blacklenticularbracketright.vert;
sub cornerbracketleft by cornerbracketleft.vert;
sub cornerbracketright by cornerbracketright.vert;
sub dblanglebracketleft by dblanglebracketleft.vert;
sub dblanglebracketright by dblanglebracketright.vert;
sub tortoiseshellbracketleft by tortoiseshellbracketleft.vert;
sub tortoiseshellbracketright by tortoiseshellbracketright.vert;
sub whitecornerbracketleft by whitecornerbracketleft.vert;
sub whitecornerbracketright by whitecornerbracketright.vert;
sub whitelenticularbracketleft by whitelenticularbracketleft.vert;
sub whitelenticularbracketright by whitelenticularbracketright.vert;
sub braceleft.full by braceleft.full.vert;
sub braceright.full by braceright.full.vert;
sub bracketleft.full by bracketleft.full.vert;
sub bracketright.full by bracketright.full.vert;
sub parenleft.full by parenleft.full.vert;
sub parenright.full by parenright.full.vert;
sub angleLeft by anglebracketleft.vert;
sub angleRight by anglebracketright.vert;";
tag = vert;
},
{
automatic = 1;
code = "sub blacklenticularbracketleft by blacklenticularbracketleft.vert;
sub blacklenticularbracketright by blacklenticularbracketright.vert;

glyphs = (
{
glyphname = .notdef;
layers = (
{
hints = (
{
horizontal = 1;
place = (-120, 50);
place = (-120, 50);
type = Stem;
},
{
horizontal = 1;
place = (830, 50);
place = (830, 50);
type = Stem;
},
{
place = (100, 50);
place = (100, 50);
type = Stem;
},
{
place = (850, 50);
place = (850, 50);
type = Stem;
},
{
horizontal = 1;
place = (789, 91);
place = (789, 91);
type = Stem;
}
);
layerId = m01;
shapes = (
{
closed = 1;
nodes = (
(100,-120,l),
(900,-120,l),
(900,880,l),
(100,880,l)
);
},
{
closed = 1;
nodes = (
(500,421,l),
(182,830,l),
(818,830,l)
);
},
{
closed = 1;
nodes = (
(532,380,l),
(850,789,l),
(850,-29,l)
);
},
{
closed = 1;
nodes = (
(182,-70,l),
(500,339,l),
(818,-70,l)
);
},
{
closed = 1;
nodes = (
(150,789,l),
(468,380,l),
(150,-29,l)
);
}
);
vertWidth = 1000;
width = 1000;
}
);
note = ".notdef";
},
{
glyphname = angleLeft;
lastChange = "2023-08-28 01:03:15 +0000";
layers = (
{
hints = (
{
horizontal = 1;
place = (-89, 938);
place = (-89, 938);
type = Stem;
},
{
place = (533, 427);
place = (533, 427);
type = Stem;
}
);
layerId = m01;
shapes = (
{
closed = 1;
nodes = (
(627,823,l),
(597,849,l),
(200,380,l),
(597,-89,l),
(627,-63,l),
(253,380,l)
);
}
);
vertWidth = 1000;
width = 667;
}
);
note = cid01404;
unicode = (9001,12296);
},
{
glyphname = angleRight;
lastChange = "2023-08-28 01:03:27 +0000";
layers = (
{
hints = (
{
horizontal = 1;
place = (-89, 938);
place = (-89, 938);
type = Stem;
},
{
place = (40, 427);
place = (40, 427);
type = Stem;
}
);
layerId = m01;
shapes = (
{
closed = 1;
nodes = (
(40,-63,l),
(70,-89,l),
(467,380,l),
(70,849,l),
(40,823,l),
(414,380,l)
);
}
);
vertWidth = 1000;
width = 667;
}
);
note = cid01405;
unicode = (9002,12297);
},
{
glyphname = blacklenticularbracketleft;
lastChange = "2023-08-28 01:03:15 +0000";
layers = (
{
hints = (
{
horizontal = 1;
place = (-80, 17);
place = (-80, 17);
type = Stem;
},
{
horizontal = 1;
place = (823, 17);
place = (823, 17);
type = Stem;
},
{
place = (617, 80);
place = (617, 80);
type = Stem;
}
);
layerId = m01;
shapes = (
{
closed = 1;
nodes = (
(543,-63,l),
(385,8,o),
(280,161,o),
(280,380,cs),
(280,599,o),
(385,752,o),
(543,823,c),
(543,840,l),
(200,840,l),
(200,-80,l),
(543,-80,l)
);
}
);
vertWidth = 1000;
width = 583;
}
);
note = cid01412;
unicode = 12304;
},
{
glyphname = blacklenticularbracketright;
lastChange = "2023-08-28 01:03:27 +0000";
layers = (
{
hints = (
{
horizontal = 1;
place = (-80, 17);
place = (-80, 17);
type = Stem;
},
{
horizontal = 1;
place = (823, 17);
place = (823, 17);
type = Stem;
},
{
place = (303, 80);
place = (303, 80);
type = Stem;
}
);
layerId = m01;
shapes = (
{
closed = 1;
nodes = (
(40,-80,l),
(383,-80,l),
(383,840,l),
(40,840,l),
(40,823,l),
(198,752,o),
(303,599,o),
(303,380,cs),
(303,161,o),
(198,8,o),
(40,-63,c)
);
}
);
vertWidth = 1000;
width = 583;
}
);
note = cid01413;
unicode = 12305;
},
{
glyphname = braceleft.full;
lastChange = "2023-08-28 01:03:15 +0000";
layers = (
{
hints = (
{
horizontal = 1;
place = (-104, 35.5);
place = (-104, 35.5);
type = Stem;
},
{
horizontal = 1;
place = (829, 36);
place = (829, 36);
type = Stem;
},
{
place = (716, 53);
place = (716, 53);
type = Stem;
},
{
place = (740, 39);
place = (740, 39);
type = Stem;
}
);
layerId = m01;
shapes = (
{
closed = 1;
nodes = (
(587,830,l),
(587,865,l),
(531,865,ls),
(390,865,o),
(331,815,o),
(331,726,cs),
(331,642,o),
(355,554,o),
(355,501,cs),
(355,445,o),
(316,410,o),
(200,397,c),
(200,364,l),
(316,350,o),
(355,315,o),
(355,260,cs),
(355,207,o),
(331,119,o),
(331,34,cs),
(331,-54,o),
(390,-104,o),
(531,-104,cs),
(587,-104,l),
(587,-70,l),
(529,-67,ls),
(416,-61,o),
(384,-30,o),
(384,40,cs),
(384,123,o),
(394,191,o),
(394,252,cs),
(394,311,o),
(364,363,o),
(276,380,c),
(364,398,o),
(394,449,o),
(394,508,cs),
(394,569,o),
(384,637,o),
(384,721,cs),
(384,791,o),
(416,823,o),
(529,828,cs)
);
}
);
vertWidth = 1000;
width = 615;
}
);
note = cid60034;
unicode = 65371;
},
{
glyphname = braceright.full;
lastChange = "2023-08-28 01:03:27 +0000";
layers = (
{
hints = (
{
horizontal = 1;
place = (-104, 36);
place = (-104, 36);
type = Stem;
},
{
horizontal = 1;
place = (829.5, 35.5);
place = (829.5, 35.5);
type = Stem;
},
{
place = (231, 53);
place = (231, 53);
type = Stem;
},
{
place = (221, 39);
place = (221, 39);
type = Stem;
}
);
layerId = m01;
shapes = (
{
closed = 1;
nodes = (
(415,397,l),
(299,411,o),
(260,446,o),
(260,501,cs),
(260,554,o),
(284,642,o),
(284,727,cs),
(284,815,o),
(225,865,o),
(84,865,cs),
(28,865,l),
(28,831,l),
(86,828,ls),
(199,822,o),
(231,791,o),
(231,721,cs),
(231,638,o),
(221,570,o),
(221,509,cs),
(221,450,o),
(251,398,o),
(339,381,c),
(251,363,o),
(221,312,o),
(221,253,cs),
(221,192,o),
(231,124,o),
(231,40,cs),
(231,-30,o),
(199,-62,o),
(86,-67,cs),
(28,-69,l),
(28,-104,l),
(84,-104,ls),
(225,-104,o),
(284,-54,o),
(284,35,cs),
(284,119,o),
(260,207,o),
(260,260,cs),
(260,316,o),
(299,351,o),
(415,364,c)
);
}
);
vertWidth = 1000;
width = 615;
}
);
note = cid60036;
unicode = 65373;
},
{
glyphname = cornerbracketleft;
lastChange = "2023-08-28 01:03:15 +0000";
layers = (
{
hints = (
{
horizontal = 1;
place = (806, 34);
place = (806, 34);
type = Stem;
},
{
place = (660, 36);
place = (660, 36);
type = Stem;
}
);
layerId = m01;
shapes = (
{
closed = 1;
nodes = (
(200,186,l),
(236,186,l),
(236,806,l),
(500,806,l),
(500,840,l),
(200,840,l)
);
}
);
vertWidth = 1000;
width = 540;
}
);
note = cid01408;
unicode = 12300;
},
{
glyphname = cornerbracketright;
lastChange = "2023-08-28 01:03:27 +0000";
layers = (
{
hints = (
{
horizontal = 1;
place = (-80, 34);
place = (-80, 34);
type = Stem;
},
{
place = (304, 36);
place = (304, 36);
type = Stem;
}
);
layerId = m01;
shapes = (
{
closed = 1;
nodes = (
(340,574,l),
(304,574,l),
(304,-46,l),
(40,-46,l),
(40,-80,l),
(340,-80,l)
);
}
);
vertWidth = 1000;
width = 540;
}
);
note = cid01409;
unicode = 12301;
},
{
glyphname = dblanglebracketleft;
lastChange = "2023-08-28 01:03:15 +0000";
layers = (
{
hints = (
{
horizontal = 1;
place = (-83, 926);
place = (-83, 926);
type = Stem;
},
{
place = (521, 438);
place = (521, 438);
type = Stem;
}
);
layerId = m01;
shapes = (
{
closed = 1;
nodes = (
(240,380,l),
(495,825,l),
(466,843,l),
(200,380,l),
(466,-83,l),
(495,-65,l)
);
},
{
closed = 1;
nodes = (
(383,380,l),
(638,825,l),
(609,843,l),
(343,380,l),
(609,-83,l),
(638,-65,l)
);
}
);
vertWidth = 1000;
width = 679;
}
);
note = cid01406;
unicode = 12298;
},
{
glyphname = dblanglebracketright;
lastChange = "2023-08-28 01:03:27 +0000";
layers = (
{
hints = (
{
horizontal = 1;
place = (-83, 926);
place = (-83, 926);
type = Stem;
},
{
place = (41, 438);
place = (41, 438);
type = Stem;
}
);
layerId = m01;
shapes = (
{
closed = 1;
nodes = (
(213,-83,l),
(479,380,l),
(213,843,l),
(184,825,l),
(439,380,l),
(184,-65,l)
);
},
{
closed = 1;
nodes = (
(70,-83,l),
(336,380,l),
(70,843,l),
(41,825,l),
(296,380,l),
(41,-65,l)
);
}
);
vertWidth = 1000;
width = 679;
}
);
note = cid01407;
unicode = 12299;
},
{
glyphname = tortoiseshellbracketleft;
lastChange = "2023-08-28 01:03:15 +0000";
layers = (
{
hints = (
{
horizontal = 1;
place = (-86, 932);
place = (-86, 932);
type = Stem;
},
{
place = (710, 36);
place = (710, 36);
type = Stem;
}
);
layerId = m01;
shapes = (
{
closed = 1;
nodes = (
(433,-86,l),
(449,-55,l),
(236,44,l),
(236,716,l),
(449,815,l),
(433,846,l),
(200,737,l),
(200,23,l)
);
}
);
vertWidth = 1000;
width = 490;
}
);
note = cid01416;
unicode = 12308;
},
{
glyphname = tortoiseshellbracketright;
lastChange = "2023-08-28 01:03:27 +0000";
layers = (
{
hints = (
{
horizontal = 1;
place = (-86, 932);
place = (-86, 932);
type = Stem;
},
{
place = (254, 36);
place = (254, 36);
type = Stem;
}
);
layerId = m01;
shapes = (
{
closed = 1;
nodes = (
(57,-86,l),
(290,23,l),
(290,737,l),
(57,846,l),
(41,815,l),
(254,715,l),
(254,45,l),
(41,-55,l)
);
}
);
vertWidth = 1000;
width = 490;
}
);
note = cid01417;
unicode = 12309;
},
{
glyphname = whitecornerbracketleft;
lastChange = "2023-08-28 01:03:15 +0000";
layers = (
{
hints = (
{
horizontal = 1;
place = (176, 28);
place = (176, 28);
type = Stem;
},
{
horizontal = 1;
place = (695, 28);
place = (695, 28);
type = Stem;
},
{
horizontal = 1;
place = (813, 28);
place = (813, 28);
type = Stem;
},
{
place = (599, 28);
place = (599, 28);
type = Stem;
},
{
place = (721, 28);
place = (721, 28);
type = Stem;
},
{
place = (932, 28);
place = (932, 28);
type = Stem;
}
);
layerId = m01;
shapes = (
{
closed = 1;
nodes = (
(561,695,l),
(561,841,l),
(200,841,l),
(200,176,l),
(350,176,l),
(350,695,l)
);
},
{
closed = 1;
nodes = (
(533,813,l),
(533,723,l),
(322,723,l),
(322,204,l),
(228,204,l),
(228,813,l)
);
}
);
vertWidth = 1000;
width = 601;
}
);
note = cid01410;
unicode = 12302;
},
{
glyphname = whitecornerbracketright;
lastChange = "2023-08-28 01:03:27 +0000";
layers = (
{
hints = (
{
horizontal = 1;
place = (-80, 28);
place = (-80, 28);
type = Stem;
},
{
horizontal = 1;
place = (38, 28);
place = (38, 28);
type = Stem;
},
{
horizontal = 1;
place = (556, 28);
place = (556, 28);
type = Stem;
},
{
place = (40, 28);
place = (40, 28);
type = Stem;
},
{
place = (251, 28);
place = (251, 28);
type = Stem;
},
{
place = (373, 28);
place = (373, 28);
type = Stem;
}
);
layerId = m01;
shapes = (
{
closed = 1;
nodes = (
(40,66,l),
(40,-80,l),
(401,-80,l),
(401,584,l),
(251,584,l),
(251,66,l)
);
},
{
closed = 1;
nodes = (
(68,-52,l),
(68,38,l),
(279,38,l),
(279,556,l),
(373,556,l),
(373,-52,l)
);
}
);
vertWidth = 1000;
width = 601;
}
);
note = cid01411;
unicode = 12303;
},
{
glyphname = whitelenticularbracketleft;
lastChange = "2023-08-28 01:03:15 +0000";
layers = (
{
hints = (
{
horizontal = 1;
place = (-80, 28);
place = (-80, 28);
type = Stem;
},
{
horizontal = 1;
place = (812, 28);
place = (812, 28);
type = Stem;
},
{
place = (608, 28);
place = (608, 28);
type = Stem;
},
{
place = (672, 28);
place = (672, 28);
type = Stem;
},
{
horizontal = 1;
place = (818, 22);
place = (818, 22);
type = Stem;
}
);
layerId = m01;
shapes = (
{
closed = 1;
nodes = (
(552,-58,l),
(403,5,o),
(292,161,o),
(292,380,cs),
(292,599,o),
(403,755,o),
(552,818,c),
(552,840,l),
(200,840,l),
(200,-80,l),
(552,-80,l)
);
},
{
closed = 1;
nodes = (
(228,-52,l),
(228,812,l),
(481,812,l),
(396,760,o),
(264,628,o),
(264,380,cs),
(264,132,o),
(396,0,o),
(481,-52,c)
);
}
);
vertWidth = 1000;
width = 592;
}
);
note = cid01418;
unicode = 12310;
},
{
glyphname = whitelenticularbracketright;
lastChange = "2023-08-28 01:03:27 +0000";
layers = (
{
hints = (
{
horizontal = 1;
place = (-80, 28);
place = (-80, 28);
type = Stem;
},
{
horizontal = 1;
place = (812, 28);
place = (812, 28);
type = Stem;
},
{
place = (300, 28);
place = (300, 28);
type = Stem;
},
{
place = (364, 28);
place = (364, 28);
type = Stem;
},
{
horizontal = 1;
place = (818, 22);
place = (818, 22);
type = Stem;
}
);
layerId = m01;
shapes = (
{
closed = 1;
nodes = (
(392,-80,l),
(392,840,l),
(40,840,l),
(40,818,l),
(189,755,o),
(300,599,o),
(300,380,cs),
(300,161,o),
(189,5,o),
(40,-58,c),
(40,-80,l)
);
},
{
closed = 1;
nodes = (
(328,628,o),
(196,760,o),
(111,812,c),
(364,812,l),
(364,-52,l),
(111,-52,l),
(196,0,o),
(328,132,o),
(328,380,cs)
);
}
);
vertWidth = 1000;
width = 592;
}
);
note = cid01419;
unicode = 12311;
},
{
glyphname = anglebracketleft.vert;
lastChange = "2023-08-28 01:03:56 +0000";
layers = (
{
hints = (
{
horizontal = 1;
place = (-80, 427);
place = (-80, 427);
type = Stem;
},
{
place = (31, 938);
place = (31, 938);
type = Stem;
}
);
layerId = m01;
shapes = (
{
closed = 1;
nodes = (
(943,253,l),
(969,283,l),
(500,680,l),
(31,283,l),
(57,253,l),
(500,627,l)
);
}
);
vertWidth = 667;
width = 1000;
}
);
note = cid59901;
unicode = 65087;
},
{
glyphname = anglebracketright.vert;
lastChange = "2023-08-28 01:04:02 +0000";
layers = (
{
hints = (
{
horizontal = 1;
place = (413, 427);
place = (413, 427);
type = Stem;
},
{
place = (31, 938);
place = (31, 938);
type = Stem;
}
);
layerId = m01;
shapes = (
{
closed = 1;
nodes = (
(57,840,l),
(31,810,l),
(500,413,l),
(969,810,l),
(943,840,l),
(500,466,l)
);
}
);
vertWidth = 667;
width = 1000;
}
);
note = cid59902;
unicode = 65088;
},
{
glyphname = blacklenticularbracketleft.vert;
lastChange = "2023-08-28 01:04:07 +0000";
layers = (
{
hints = (
{
horizontal = 1;
place = (183, 80);
place = (183, 80);
type = Stem;
},
{
place = (40, 17);
place = (40, 17);
type = Stem;
},
{
place = (943, 17);
place = (943, 17);
type = Stem;
}
);
layerId = m01;
shapes = (
{
closed = 1;
nodes = (
(57,337,l),
(128,495,o),
(281,600,o),
(500,600,cs),
(719,600,o),
(872,495,o),
(943,337,c),
(960,337,l),
(960,680,l),
(40,680,l),
(40,337,l)
);
}
);
vertWidth = 583;
width = 1000;
}
);
note = cid59897;
unicode = 65083;
},
{
glyphname = blacklenticularbracketright.vert;
lastChange = "2023-08-28 01:04:12 +0000";
layers = (
{
hints = (
{
horizontal = 1;
place = (497, 80);
place = (497, 80);
type = Stem;
},
{
place = (40, 17);
place = (40, 17);
type = Stem;
},
{
place = (943, 17);
place = (943, 17);
type = Stem;
}
);
layerId = m01;
shapes = (
{
closed = 1;
nodes = (
(943,840,l),
(872,682,o),
(719,577,o),
(500,577,cs),
(281,577,o),
(128,682,o),
(57,840,c),
(40,840,l),
(40,497,l),
(960,497,l),
(960,840,l)
);
}
);
vertWidth = 583;
width = 1000;
}
);
note = cid59898;
unicode = 65084;
},
{
glyphname = bracketleft.full;
lastChange = "2023-08-28 01:03:15 +0000";
layers = (
{
hints = (
{
horizontal = 1;
place = (-80, 34);
place = (-80, 34);
type = Stem;
},
{
horizontal = 1;
place = (806, 34);
place = (806, 34);
type = Stem;
},
{
place = (710, 36);
place = (710, 36);
type = Stem;
}
);
layerId = m01;
shapes = (
{
closed = 1;
nodes = (
(200,-80,l),
(450,-80,l),
(450,-46,l),
(236,-46,l),
(236,806,l),
(450,806,l),
(450,840,l),
(200,840,l)
);
}
);
vertWidth = 1000;
width = 490;
}
);
note = cid60002;
unicode = 65339;
},
{
glyphname = bracketright.full;
lastChange = "2023-08-28 01:03:27 +0000";
layers = (
{
hints = (
{
horizontal = 1;
place = (-80, 34);
place = (-80, 34);
type = Stem;
},
{
horizontal = 1;
place = (806, 34);
place = (806, 34);
type = Stem;
},
{
place = (254, 36);
place = (254, 36);
type = Stem;
}
);
layerId = m01;
shapes = (
{
closed = 1;
nodes = (
(290,-80,l),
(290,840,l),
(40,840,l),
(40,806,l),
(254,806,l),
(254,-46,l),
(40,-46,l),
(40,-80,l)
);
}
);
vertWidth = 1000;
width = 490;
}
);
note = cid60004;
unicode = 65341;
},
{
glyphname = cornerbracketleft.vert;
lastChange = "2023-08-28 01:04:17 +0000";
layers = (
{
hints = (
{
horizontal = 1;
place = (186, 34);
place = (186, 34);
type = Stem;
},
{
place = (939, 36);
place = (939, 36);
type = Stem;
}
);
layerId = m01;
shapes = (
{
closed = 1;
nodes = (
(255,680,l),
(255,646,l),
(939,646,l),
(939,380,l),
(975,380,l),
(975,680,l)
);
}
);
vertWidth = 540;
width = 1000;
}
);
note = cid59903;
unicode = 65089;
},
{
glyphname = cornerbracketright.vert;
lastChange = "2023-08-28 01:04:23 +0000";
layers = (
{
hints = (
{
horizontal = 1;
place = (540, 34);
place = (540, 34);
type = Stem;
},
{
place = (25, 36);
place = (25, 36);
type = Stem;
}
);
layerId = m01;
shapes = (
{
closed = 1;
nodes = (
(745,540,l),
(745,574,l),
(61,574,l),
(61,840,l),
(25,840,l),
(25,540,l)
);
}
);
vertWidth = 540;
width = 1000;
}
);
note = cid59904;
unicode = 65090;
},
{
glyphname = dblanglebracketleft.vert;
lastChange = "2023-08-28 01:04:29 +0000";
layers = (
{
hints = (
{
horizontal = 1;
place = (-79, 438);
place = (-79, 438);
type = Stem;
},
{
place = (37, 926);
place = (37, 926);
type = Stem;
}
);
layerId = m01;
shapes = (
{
closed = 1;
nodes = (
(500,640,l),
(945,385,l),
(963,414,l),
(500,680,l),
(37,414,l),
(55,385,l)
);
},
{
closed = 1;
nodes = (
(500,497,l),
(945,242,l),
(963,271,l),
(500,537,l),
(37,271,l),
(55,242,l)
);
}
);
vertWidth = 679;
width = 1000;
}
);
note = cid59899;
unicode = 65085;
},
{
glyphname = dblanglebracketright.vert;
lastChange = "2023-08-28 01:04:35 +0000";
layers = (
{
hints = (
{
horizontal = 1;
place = (401, 438);
place = (401, 438);
type = Stem;
},
{
place = (37, 926);
place = (37, 926);
type = Stem;
}
);
layerId = m01;
shapes = (
{
closed = 1;
nodes = (
(37,667,l),
(500,401,l),
(963,667,l),
(945,696,l),
(500,441,l),
(55,696,l)
);
},
{
closed = 1;
nodes = (
(37,810,l),
(500,544,l),
(963,810,l),
(945,839,l),
(500,584,l),
(55,839,l)
);
}
);
vertWidth = 679;
width = 1000;
}
);
note = cid59900;
unicode = 65086;
},
{
glyphname = parenleft.full;
lastChange = "2023-08-28 01:03:15 +0000";
layers = (
{
hints = (
{
horizontal = 1;
place = (-86, 932);
place = (-86, 932);
type = Stem;
},
{
place = (655, 53);
place = (655, 53);
type = Stem;
}
);
layerId = m01;
shapes = (
{
closed = 1;
nodes = (
(200,140,o),
(332,0,o),
(462,-86,c),
(481,-65,l),
(363,27,o),
(253,173,o),
(253,380,cs),
(253,587,o),
(363,733,o),
(481,825,c),
(462,846,l),
(332,760,o),
(200,620,o),
(200,380,cs)
);
}
);
vertWidth = 1000;
width = 545;
}
);
note = cid59951;
unicode = 65288;
},
{
glyphname = parenright.full;
lastChange = "2023-08-28 01:03:27 +0000";
layers = (
{
hints = (
{
horizontal = 1;
place = (-86, 932);
place = (-86, 932);
type = Stem;
},
{
place = (292, 53);
place = (292, 53);
type = Stem;
}
);
layerId = m01;
shapes = (
{
closed = 1;
nodes = (
(64,825,l),
(182,733,o),
(292,587,o),
(292,380,cs),
(292,173,o),
(182,27,o),
(64,-65,c),
(83,-86,l),
(213,0,o),
(345,140,o),
(345,380,cs),
(345,620,o),
(213,760,o),
(83,846,c)
);
}
);
vertWidth = 1000;
width = 545;
}
);
note = cid59952;
unicode = 65289;
},
{
glyphname = tortoiseshellbracketleft.vert;
lastChange = "2023-08-28 01:04:41 +0000";
layers = (
{
hints = (
{
horizontal = 1;
place = (135, 35);
place = (135, 35);
type = Stem;
},
{
place = (34, 932);
place = (34, 932);
type = Stem;
}
);
layerId = m01;
shapes = (
{
closed = 1;
nodes = (
(143,680,l),
(34,447,l),
(65,430,l),
(166,645,l),
(834,645,l),
(935,430,l),
(966,447,l),
(857,680,l)
);
}
);
vertWidth = 490;
width = 1000;
}
);
note = cid59895;
unicode = 65081;
},
{
glyphname = tortoiseshellbracketright.vert;
lastChange = "2023-08-28 01:04:46 +0000";
layers = (
{
hints = (
{
horizontal = 1;
place = (590, 35);
place = (590, 35);
type = Stem;
},
{
place = (34, 932);
place = (34, 932);
type = Stem;
}
);
layerId = m01;
shapes = (
{
closed = 1;
nodes = (
(966,823,l),
(935,840,l),
(834,625,l),
(166,625,l),
(65,840,l),
(34,823,l),
(143,590,l),
(857,590,l)
);
}
);
vertWidth = 490;
width = 1000;
}
);
note = cid59896;
unicode = 65082;
},
{
glyphname = whitecornerbracketleft.vert;
lastChange = "2023-08-28 01:04:52 +0000";
layers = (
{
hints = (
{
horizontal = 1;
place = (-80, 28);
place = (-80, 28);
type = Stem;
},
{
horizontal = 1;
place = (125, 28);
place = (125, 28);
type = Stem;
},
{
horizontal = 1;
place = (243, 28);
place = (243, 28);
type = Stem;
},
{
place = (296, 28);
place = (296, 28);
type = Stem;
},
{
place = (810, 28);
place = (810, 28);
type = Stem;
},
{
place = (932, 28);
place = (932, 28);
type = Stem;
}
);
layerId = m01;
shapes = (
{
closed = 1;
nodes = (
(810,329,l),
(960,329,l),
(960,680,l),
(296,680,l),
(296,534,l),
(810,534,l)
);
},
{
closed = 1;
nodes = (
(932,357,l),
(838,357,l),
(838,562,l),
(324,562,l),
(324,652,l),
(932,652,l)
);
}
);
vertWidth = 591;
width = 1000;
}
);
note = cid59905;
unicode = 65091;
},
{
glyphname = whitecornerbracketright.vert;
lastChange = "2023-08-28 01:05:00 +0000";
layers = (
{
hints = (
{
horizontal = 1;
place = (489, 28);
place = (489, 28);
type = Stem;
},
{
horizontal = 1;
place = (607, 28);
place = (607, 28);
type = Stem;
},
{
horizontal = 1;
place = (812, 28);
place = (812, 28);
type = Stem;
},
{
place = (40, 28);
place = (40, 28);
type = Stem;
},
{
place = (162, 28);
place = (162, 28);
type = Stem;
},
{
place = (676, 28);
place = (676, 28);
type = Stem;
}
);
layerId = m01;
shapes = (
{
closed = 1;
nodes = (
(190,840,l),
(40,840,l),
(40,489,l),
(704,489,l),
(704,635,l),
(190,635,l)
);
},
{
closed = 1;
nodes = (
(68,812,l),
(162,812,l),
(162,607,l),
(676,607,l),
(676,517,l),
(68,517,l)
);
}
);
vertWidth = 591;
width = 1000;
}
);
note = cid59906;
unicode = 65092;
},
{
glyphname = whitelenticularbracketleft.vert;
lastChange = "2023-08-28 01:05:07 +0000";
layers = (
{
hints = (
{
horizontal = 1;
place = (180, 28);
place = (180, 28);
type = Stem;
},
{
horizontal = 1;
place = (244, 28);
place = (244, 28);
type = Stem;
},
{
place = (40, 28);
place = (40, 28);
type = Stem;
},
{
place = (932, 28);
place = (932, 28);
type = Stem;
}
);
layerId = m01;
shapes = (
{
closed = 1;
nodes = (
(62,328,l),
(125,477,o),
(281,588,o),
(500,588,cs),
(719,588,o),
(875,477,o),
(938,328,c),
(960,328,l),
(960,680,l),
(40,680,l),
(40,328,l)
);
},
{
closed = 1;
nodes = (
(68,652,l),
(932,652,l),
(932,399,l),
(880,484,o),
(748,616,o),
(500,616,cs),
(252,616,o),
(120,484,o),
(68,399,c)
);
}
);
vertWidth = 592;
width = 1000;
}
);
note = cid59883;
unicode = 65047;
},
{
glyphname = whitelenticularbracketright.vert;
lastChange = "2023-08-28 01:05:12 +0000";
layers = (
{
hints = (
{
horizontal = 1;
place = (497, 28);
place = (497, 28);
type = Stem;
},
{
horizontal = 1;
place = (561, 28);
place = (561, 28);
type = Stem;
},
{
place = (40, 28);
place = (40, 28);
type = Stem;
},
{
place = (932, 28);
place = (932, 28);
type = Stem;
}
);
layerId = m01;
shapes = (
{
closed = 1;
nodes = (
(40,497,l),
(960,497,l),
(960,849,l),
(938,849,l),
(875,700,o),
(719,589,o),
(500,589,cs),
(281,589,o),
(125,700,o),
(62,849,c),
(40,849,l)
);
},
{
closed = 1;
nodes = (
(748,561,o),
(880,693,o),
(932,778,c),
(932,525,l),
(68,525,l),
(68,778,l),
(120,693,o),
(252,561,o),
(500,561,cs)
);
}
);
vertWidth = 583;
width = 1000;
}
);
note = cid59884;
unicode = 65048;
},
{
glyphname = braceleft.full.vert;
lastChange = "2023-08-28 01:05:18 +0000";
layers = (
{
hints = (
{
horizontal = 1;
place = (57, 52);
place = (57, 52);
type = Stem;
},
{
place = (15, 35);
place = (15, 35);
type = Stem;
},
{
place = (484, 32);
place = (484, 32);
type = Stem;
},
{
place = (949.5, 35.5);
place = (949.5, 35.5);
type = Stem;
},
{
horizontal = 1;
place = (20, 39);
place = (20, 39);
type = Stem;
}
);
layerId = m01;
shapes = (
{
closed = 1;
nodes = (
(484,680,l),
(472,569,o),
(435,533,o),
(379,533,cs),
(327,533,o),
(238,583,o),
(154,583,cs),
(66,583,o),
(15,527,o),
(15,393,cs),
(15,355,l),
(49,355,l),
(51,395,ls),
(58,502,o),
(89,531,o),
(160,531,cs),
(243,531,o),
(311,494,o),
(372,494,cs),
(430,494,o),
(483,524,o),
(500,613,c),
(517,524,o),
(569,494,o),
(628,494,cs),
(689,494,o),
(757,531,o),
(841,531,cs),
(911,531,o),
(942,502,o),
(948,395,cs),
(951,355,l),
(985,355,l),
(985,393,ls),
(985,527,o),
(935,583,o),
(846,583,cs),
(762,583,o),
(674,533,o),
(621,533,cs),
(565,533,o),
(528,569,o),
(516,680,c)
);
}
);
vertWidth = 526;
width = 1000;
}
);
note = cid59893;
unicode = 65079;
},
{
glyphname = braceright.full.vert;
lastChange = "2023-08-28 01:05:23 +0000";
layers = (
{
hints = (
{
horizontal = 1;
place = (650, 51);
place = (650, 51);
type = Stem;
},
{
place = (15, 36);
place = (15, 36);
type = Stem;
},
{
place = (950, 35);
place = (950, 35);
type = Stem;
},
{
horizontal = 1;
place = (700, 38);
place = (700, 38);
type = Stem;
},
{
place = (484, 32);
place = (484, 32);
type = Stem;
}
);
layerId = m01;
shapes = (
{
closed = 1;
nodes = (
(951,878,l),
(949,838,ls),
(942,730,o),
(911,701,o),
(841,701,cs),
(757,701,o),
(689,738,o),
(628,738,cs),
(570,738,o),
(517,708,o),
(500,620,c),
(483,708,o),
(431,738,o),
(372,738,cs),
(312,738,o),
(243,701,o),
(160,701,cs),
(89,701,o),
(58,730,o),
(52,838,cs),
(50,878,l),
(15,878,l),
(15,839,ls),
(15,705,o),
(66,650,o),
(155,650,cs),
(238,650,o),
(327,700,o),
(379,700,cs),
(436,700,o),
(472,664,o),
(484,553,c),
(516,553,l),
(528,664,o),
(565,700,o),
(621,700,cs),
(674,700,o),
(762,650,o),
(846,650,cs),
(935,650,o),
(985,705,o),
(985,839,cs),
(985,878,l)
);
}
);
vertWidth = 527;
width = 1000;
}
);
note = cid59894;
unicode = 65080;
},
{
glyphname = bracketleft.full.vert;
lastChange = "2023-08-28 01:05:29 +0000";
layers = (
{
hints = (
{
horizontal = 1;
place = (136, 34);
place = (136, 34);
type = Stem;
},
{
place = (40, 36);
place = (40, 36);
type = Stem;
},
{
place = (924, 36);
place = (924, 36);
type = Stem;
}
);
layerId = m01;
shapes = (
{
closed = 1;
nodes = (
(40,680,l),
(40,430,l),
(76,430,l),
(76,646,l),
(924,646,l),
(924,430,l),
(960,430,l),
(960,680,l)
);
}
);
vertWidth = 490;
width = 1000;
}
);
note = cid59909;
unicode = 65095;
},
{
glyphname = bracketright.full.vert;
lastChange = "2023-08-28 01:05:35 +0000";
layers = (
{
hints = (
{
horizontal = 1;
place = (590, 34);
place = (590, 34);
type = Stem;
},
{
place = (40, 36);
place = (40, 36);
type = Stem;
},
{
place = (924, 36);
place = (924, 36);
type = Stem;
}
);
layerId = m01;
shapes = (
{
closed = 1;
nodes = (
(960,590,l),
(960,840,l),
(924,840,l),
(924,624,l),
(76,624,l),
(76,840,l),
(40,840,l),
(40,590,l)
);
}
);
vertWidth = 490;
width = 1000;
}
);
note = cid59910;
unicode = 65096;
},
{
glyphname = parenleft.full.vert;
lastChange = "2023-08-28 01:05:42 +0000";
layers = (
{
hints = (
{
horizontal = 1;
place = (173, 53);
place = (173, 53);
type = Stem;
},
{
place = (34, 932);
place = (34, 932);
type = Stem;
}
);
layerId = m01;
shapes = (
{
closed = 1;
nodes = (
(260,680,o),
(120,548,o),
(34,418,c),
(55,399,l),
(147,517,o),
(293,627,o),
(500,627,cs),
(707,627,o),
(853,517,o),
(945,399,c),
(966,418,l),
(880,548,o),
(740,680,o),
(500,680,cs)
);
}
);
vertWidth = 546;
width = 1000;
}
);
note = cid59891;
unicode = 65077;
},
